<?xml version="1.0" encoding="UTF-8" standalone="no"?>
<!DOCTYPE svg PUBLIC "-//W3C//DTD SVG 1.1//EN"
 "http://www.w3.org/Graphics/SVG/1.1/DTD/svg11.dtd">
<!-- Generated by graphviz version 2.38.0 (20140413.2041)
 -->
<!-- Title: TG Pages: 1 -->
<svg width="2179pt" height="566pt"
 viewBox="0.00 0.00 2178.79 566.00" xmlns="http://www.w3.org/2000/svg" xmlns:xlink="http://www.w3.org/1999/xlink">
<g id="graph0" class="graph" transform="scale(1 1) rotate(0) translate(4 562)">
<title>TG</title>
<polygon fill="white" stroke="none" points="-4,4 -4,-562 2174.79,-562 2174.79,4 -4,4"/>
<!-- 0 -->
<g id="node1" class="node"><title>0</title>
<ellipse fill="none" stroke="black" cx="1129.24" cy="-540" rx="38.9931" ry="18"/>
<text text-anchor="middle" x="1129.24" y="-536.3" font-family="Times New Roman,serif" font-size="14.00">Server_</text>
</g>
<!-- 1 -->
<g id="node2" class="node"><title>1</title>
<ellipse fill="none" stroke="black" cx="1129.24" cy="-453" rx="63.0888" ry="18"/>
<text text-anchor="middle" x="1129.24" y="-449.3" font-family="Times New Roman,serif" font-size="14.00">rse&#45;server&#45;15_</text>
</g>
<!-- 0&#45;&gt;1 -->
<g id="edge1" class="edge"><title>0&#45;&gt;1</title>
<path fill="none" stroke="black" d="M1129.24,-521.799C1129.24,-510.163 1129.24,-494.548 1129.24,-481.237"/>
<polygon fill="black" stroke="black" points="1132.74,-481.175 1129.24,-471.175 1125.74,-481.175 1132.74,-481.175"/>
<text text-anchor="middle" x="1143.24" y="-492.8" font-family="Times New Roman,serif" font-size="14.00"> 0.00</text>
</g>
<!-- 2 -->
<g id="node3" class="node"><title>2</title>
<ellipse fill="none" stroke="black" cx="94.2416" cy="-366" rx="94.4839" ry="18"/>
<text text-anchor="middle" x="94.2416" y="-362.3" font-family="Times New Roman,serif" font-size="14.00">rse&#45;server&#45;12_3split.txt</text>
</g>
<!-- 1&#45;&gt;2 -->
<g id="edge2" class="edge"><title>1&#45;&gt;2</title>
<path fill="none" stroke="black" d="M1066.26,-450.797C943.34,-448.019 662.944,-439.575 428.242,-417 339.143,-408.43 237.533,-392.3 170.019,-380.675"/>
<polygon fill="black" stroke="black" points="170.348,-377.18 159.897,-378.921 169.153,-384.077 170.348,-377.18"/>
<text text-anchor="middle" x="466.242" y="-405.8" font-family="Times New Roman,serif" font-size="14.00">3split.txt 0.80</text>
</g>
<!-- 4 -->
<g id="node5" class="node"><title>4</title>
<ellipse fill="none" stroke="black" cx="300.242" cy="-366" rx="94.4839" ry="18"/>
<text text-anchor="middle" x="300.242" y="-362.3" font-family="Times New Roman,serif" font-size="14.00">rse&#45;server&#45;12_4split.txt</text>
</g>
<!-- 1&#45;&gt;4 -->
<g id="edge3" class="edge"><title>1&#45;&gt;4</title>
<path fill="none" stroke="black" d="M1067.13,-449.557C970.044,-445.34 776.53,-435.332 613.242,-417 519.353,-406.46 496.518,-399.026 403.242,-384 395.355,-382.729 387.13,-381.392 378.918,-380.05"/>
<polygon fill="black" stroke="black" points="379.365,-376.576 368.931,-378.413 378.233,-383.484 379.365,-376.576"/>
<text text-anchor="middle" x="651.242" y="-405.8" font-family="Times New Roman,serif" font-size="14.00">4split.txt 0.77</text>
</g>
<!-- 6 -->
<g id="node7" class="node"><title>6</title>
<ellipse fill="none" stroke="black" cx="506.242" cy="-366" rx="94.4839" ry="18"/>
<text text-anchor="middle" x="506.242" y="-362.3" font-family="Times New Roman,serif" font-size="14.00">rse&#45;server&#45;12_7split.txt</text>
</g>
<!-- 1&#45;&gt;6 -->
<g id="edge4" class="edge"><title>1&#45;&gt;6</title>
<path fill="none" stroke="black" d="M1069.42,-447.3C1000.66,-441.577 884.521,-430.926 785.242,-417 714.675,-407.101 634.672,-392.403 578.486,-381.502"/>
<polygon fill="black" stroke="black" points="579.115,-378.059 568.631,-379.582 577.777,-384.93 579.115,-378.059"/>
<text text-anchor="middle" x="823.242" y="-405.8" font-family="Times New Roman,serif" font-size="14.00">7split.txt 0.76</text>
</g>
<!-- 8 -->
<g id="node9" class="node"><title>8</title>
<ellipse fill="none" stroke="black" cx="712.242" cy="-366" rx="94.4839" ry="18"/>
<text text-anchor="middle" x="712.242" y="-362.3" font-family="Times New Roman,serif" font-size="14.00">rse&#45;server&#45;12_8split.txt</text>
</g>
<!-- 1&#45;&gt;8 -->
<g id="edge5" class="edge"><title>1&#45;&gt;8</title>
<path fill="none" stroke="black" d="M1075.74,-443.28C1035.82,-436.595 979.997,-426.869 931.242,-417 879.645,-406.556 821.572,-393.225 778.198,-382.954"/>
<polygon fill="black" stroke="black" points="778.878,-379.519 768.339,-380.613 777.26,-386.329 778.878,-379.519"/>
<text text-anchor="middle" x="969.242" y="-405.8" font-family="Times New Roman,serif" font-size="14.00">8split.txt 0.76</text>
</g>
<!-- 10 -->
<g id="node11" class="node"><title>10</title>
<ellipse fill="none" stroke="black" cx="918.242" cy="-366" rx="94.4839" ry="18"/>
<text text-anchor="middle" x="918.242" y="-362.3" font-family="Times New Roman,serif" font-size="14.00">rse&#45;server&#45;12_9split.txt</text>
</g>
<!-- 1&#45;&gt;10 -->
<g id="edge6" class="edge"><title>1&#45;&gt;10</title>
<path fill="none" stroke="black" d="M1094.4,-437.964C1059.44,-423.88 1005.32,-402.078 966.289,-386.355"/>
<polygon fill="black" stroke="black" points="967.296,-382.988 956.712,-382.498 964.68,-389.481 967.296,-382.988"/>
<text text-anchor="middle" x="1075.24" y="-405.8" font-family="Times New Roman,serif" font-size="14.00">9split.txt 0.78</text>
</g>
<!-- 12 -->
<g id="node13" class="node"><title>12</title>
<ellipse fill="none" stroke="black" cx="1129.24" cy="-366" rx="98.5829" ry="18"/>
<text text-anchor="middle" x="1129.24" y="-362.3" font-family="Times New Roman,serif" font-size="14.00">rse&#45;server&#45;12_10split.txt</text>
</g>
<!-- 1&#45;&gt;12 -->
<g id="edge7" class="edge"><title>1&#45;&gt;12</title>
<path fill="none" stroke="black" d="M1129.24,-434.799C1129.24,-423.163 1129.24,-407.548 1129.24,-394.237"/>
<polygon fill="black" stroke="black" points="1132.74,-394.175 1129.24,-384.175 1125.74,-394.175 1132.74,-394.175"/>
<text text-anchor="middle" x="1170.74" y="-405.8" font-family="Times New Roman,serif" font-size="14.00">10split.txt 0.78</text>
</g>
<!-- 14 -->
<g id="node15" class="node"><title>14</title>
<ellipse fill="none" stroke="black" cx="1345.24" cy="-366" rx="98.5829" ry="18"/>
<text text-anchor="middle" x="1345.24" y="-362.3" font-family="Times New Roman,serif" font-size="14.00">rse&#45;server&#45;12_11split.txt</text>
</g>
<!-- 1&#45;&gt;14 -->
<g id="edge8" class="edge"><title>1&#45;&gt;14</title>
<path fill="none" stroke="black" d="M1164.91,-437.964C1200.66,-423.894 1256,-402.12 1295.94,-386.401"/>
<polygon fill="black" stroke="black" points="1297.46,-389.563 1305.49,-382.644 1294.9,-383.049 1297.46,-389.563"/>
<text text-anchor="middle" x="1291.74" y="-405.8" font-family="Times New Roman,serif" font-size="14.00">11split.txt 0.76</text>
</g>
<!-- 16 -->
<g id="node17" class="node"><title>16</title>
<ellipse fill="none" stroke="black" cx="1561.24" cy="-366" rx="98.5829" ry="18"/>
<text text-anchor="middle" x="1561.24" y="-362.3" font-family="Times New Roman,serif" font-size="14.00">rse&#45;server&#45;12_12split.txt</text>
</g>
<!-- 1&#45;&gt;16 -->
<g id="edge9" class="edge"><title>1&#45;&gt;16</title>
<path fill="none" stroke="black" d="M1183.25,-443.715C1225.32,-437.067 1285.13,-427.193 1337.24,-417 1390.14,-406.653 1449.68,-393.281 1494.07,-382.969"/>
<polygon fill="black" stroke="black" points="1494.93,-386.363 1503.87,-380.684 1493.34,-379.546 1494.93,-386.363"/>
<text text-anchor="middle" x="1446.74" y="-405.8" font-family="Times New Roman,serif" font-size="14.00">12split.txt 0.77</text>
</g>
<!-- 18 -->
<g id="node19" class="node"><title>18</title>
<ellipse fill="none" stroke="black" cx="1777.24" cy="-366" rx="98.5829" ry="18"/>
<text text-anchor="middle" x="1777.24" y="-362.3" font-family="Times New Roman,serif" font-size="14.00">rse&#45;server&#45;12_13split.txt</text>
</g>
<!-- 1&#45;&gt;18 -->
<g id="edge10" class="edge"><title>1&#45;&gt;18</title>
<path fill="none" stroke="black" d="M1189.46,-447.631C1261.61,-442.065 1386.06,-431.411 1492.24,-417 1564.09,-407.249 1645.52,-392.599 1702.88,-381.675"/>
<polygon fill="black" stroke="black" points="1703.78,-385.066 1712.95,-379.749 1702.47,-378.191 1703.78,-385.066"/>
<text text-anchor="middle" x="1628.74" y="-405.8" font-family="Times New Roman,serif" font-size="14.00">13split.txt 0.77</text>
</g>
<!-- 20 -->
<g id="node21" class="node"><title>20</title>
<ellipse fill="none" stroke="black" cx="1993.24" cy="-366" rx="98.5829" ry="18"/>
<text text-anchor="middle" x="1993.24" y="-362.3" font-family="Times New Roman,serif" font-size="14.00">rse&#45;server&#45;12_16split.txt</text>
</g>
<!-- 1&#45;&gt;20 -->
<g id="edge11" class="edge"><title>1&#45;&gt;20</title>
<path fill="none" stroke="black" d="M1191.52,-449.846C1292.91,-445.924 1499.89,-436.192 1674.24,-417 1768.59,-406.614 1791.47,-398.713 1885.24,-384 1893.69,-382.675 1902.51,-381.289 1911.3,-379.906"/>
<polygon fill="black" stroke="black" points="1911.87,-383.36 1921.21,-378.349 1910.78,-376.445 1911.87,-383.36"/>
<text text-anchor="middle" x="1821.74" y="-405.8" font-family="Times New Roman,serif" font-size="14.00">16split.txt 0.76</text>
</g>
<!-- 21 -->
<g id="node22" class="node"><title>21</title>
<ellipse fill="none" stroke="black" cx="2140.24" cy="-366" rx="30.5947" ry="18"/>
<text text-anchor="middle" x="2140.24" y="-362.3" font-family="Times New Roman,serif" font-size="14.00">Done</text>
</g>
<!-- 1&#45;&gt;21 -->
<g id="edge12" class="edge"><title>1&#45;&gt;21</title>
<path fill="none" stroke="black" d="M1192.07,-450.983C1319.6,-448.486 1617.9,-440.444 1867.24,-417 1971.81,-407.168 2000.18,-412.579 2101.24,-384 2103.52,-383.356 2105.84,-382.606 2108.15,-381.788"/>
<polygon fill="black" stroke="black" points="2109.48,-385.027 2117.52,-378.129 2106.94,-378.506 2109.48,-385.027"/>
<text text-anchor="middle" x="2052.74" y="-405.8" font-family="Times New Roman,serif" font-size="14.00">RB 776.43</text>
</g>
<!-- 3 -->
<g id="node4" class="node"><title>3</title>
<ellipse fill="none" stroke="black" cx="94.2416" cy="-279" rx="30.5947" ry="18"/>
<text text-anchor="middle" x="94.2416" y="-275.3" font-family="Times New Roman,serif" font-size="14.00">Done</text>
</g>
<!-- 2&#45;&gt;3 -->
<g id="edge13" class="edge"><title>2&#45;&gt;3</title>
<path fill="none" stroke="black" d="M94.2416,-347.799C94.2416,-336.163 94.2416,-320.548 94.2416,-307.237"/>
<polygon fill="black" stroke="black" points="97.7417,-307.175 94.2416,-297.175 90.7417,-307.175 97.7417,-307.175"/>
<text text-anchor="middle" x="166.742" y="-318.8" font-family="Times New Roman,serif" font-size="14.00">3_2split.txtComplete 2.74</text>
</g>
<!-- 5 -->
<g id="node6" class="node"><title>5</title>
<ellipse fill="none" stroke="black" cx="300.242" cy="-279" rx="30.5947" ry="18"/>
<text text-anchor="middle" x="300.242" y="-275.3" font-family="Times New Roman,serif" font-size="14.00">Done</text>
</g>
<!-- 4&#45;&gt;5 -->
<g id="edge14" class="edge"><title>4&#45;&gt;5</title>
<path fill="none" stroke="black" d="M300.242,-347.799C300.242,-336.163 300.242,-320.548 300.242,-307.237"/>
<polygon fill="black" stroke="black" points="303.742,-307.175 300.242,-297.175 296.742,-307.175 303.742,-307.175"/>
<text text-anchor="middle" x="324.742" y="-318.8" font-family="Times New Roman,serif" font-size="14.00">OK 0.84</text>
</g>
<!-- 7 -->
<g id="node8" class="node"><title>7</title>
<ellipse fill="none" stroke="black" cx="506.242" cy="-279" rx="30.5947" ry="18"/>
<text text-anchor="middle" x="506.242" y="-275.3" font-family="Times New Roman,serif" font-size="14.00">Done</text>
</g>
<!-- 6&#45;&gt;7 -->
<g id="edge15" class="edge"><title>6&#45;&gt;7</title>
<path fill="none" stroke="black" d="M506.242,-347.799C506.242,-336.163 506.242,-320.548 506.242,-307.237"/>
<polygon fill="black" stroke="black" points="509.742,-307.175 506.242,-297.175 502.742,-307.175 509.742,-307.175"/>
<text text-anchor="middle" x="530.742" y="-318.8" font-family="Times New Roman,serif" font-size="14.00">OK 0.69</text>
</g>
<!-- 9 -->
<g id="node10" class="node"><title>9</title>
<ellipse fill="none" stroke="black" cx="712.242" cy="-279" rx="30.5947" ry="18"/>
<text text-anchor="middle" x="712.242" y="-275.3" font-family="Times New Roman,serif" font-size="14.00">Done</text>
</g>
<!-- 8&#45;&gt;9 -->
<g id="edge16" class="edge"><title>8&#45;&gt;9</title>
<path fill="none" stroke="black" d="M712.242,-347.799C712.242,-336.163 712.242,-320.548 712.242,-307.237"/>
<polygon fill="black" stroke="black" points="715.742,-307.175 712.242,-297.175 708.742,-307.175 715.742,-307.175"/>
<text text-anchor="middle" x="739.242" y="-318.8" font-family="Times New Roman,serif" font-size="14.00">RB 29.67</text>
</g>
<!-- 11 -->
<g id="node12" class="node"><title>11</title>
<ellipse fill="none" stroke="black" cx="918.242" cy="-279" rx="30.5947" ry="18"/>
<text text-anchor="middle" x="918.242" y="-275.3" font-family="Times New Roman,serif" font-size="14.00">Done</text>
</g>
<!-- 10&#45;&gt;11 -->
<g id="edge17" class="edge"><title>10&#45;&gt;11</title>
<path fill="none" stroke="black" d="M918.242,-347.799C918.242,-336.163 918.242,-320.548 918.242,-307.237"/>
<polygon fill="black" stroke="black" points="921.742,-307.175 918.242,-297.175 914.742,-307.175 921.742,-307.175"/>
<text text-anchor="middle" x="945.242" y="-318.8" font-family="Times New Roman,serif" font-size="14.00">RB 29.53</text>
</g>
<!-- 13 -->
<g id="node14" class="node"><title>13</title>
<ellipse fill="none" stroke="black" cx="1129.24" cy="-279" rx="30.5947" ry="18"/>
<text text-anchor="middle" x="1129.24" y="-275.3" font-family="Times New Roman,serif" font-size="14.00">Done</text>
</g>
<!-- 12&#45;&gt;13 -->
<g id="edge18" class="edge"><title>12&#45;&gt;13</title>
<path fill="none" stroke="black" d="M1129.24,-347.799C1129.24,-336.163 1129.24,-320.548 1129.24,-307.237"/>
<polygon fill="black" stroke="black" points="1132.74,-307.175 1129.24,-297.175 1125.74,-307.175 1132.74,-307.175"/>
<text text-anchor="middle" x="1159.74" y="-318.8" font-family="Times New Roman,serif" font-size="14.00">RB 174.17</text>
</g>
<!-- 15 -->
<g id="node16" class="node"><title>15</title>
<ellipse fill="none" stroke="black" cx="1345.24" cy="-279" rx="30.5947" ry="18"/>
<text text-anchor="middle" x="1345.24" y="-275.3" font-family="Times New Roman,serif" font-size="14.00">Done</text>
</g>
<!-- 14&#45;&gt;15 -->
<g id="edge19" class="edge"><title>14&#45;&gt;15</title>
<path fill="none" stroke="black" d="M1345.24,-347.799C1345.24,-336.163 1345.24,-320.548 1345.24,-307.237"/>
<polygon fill="black" stroke="black" points="1348.74,-307.175 1345.24,-297.175 1341.74,-307.175 1348.74,-307.175"/>
<text text-anchor="middle" x="1375.74" y="-318.8" font-family="Times New Roman,serif" font-size="14.00">RB 219.56</text>
</g>
<!-- 17 -->
<g id="node18" class="node"><title>17</title>
<ellipse fill="none" stroke="black" cx="1561.24" cy="-279" rx="30.5947" ry="18"/>
<text text-anchor="middle" x="1561.24" y="-275.3" font-family="Times New Roman,serif" font-size="14.00">Done</text>
</g>
<!-- 16&#45;&gt;17 -->
<g id="edge20" class="edge"><title>16&#45;&gt;17</title>
<path fill="none" stroke="black" d="M1561.24,-347.799C1561.24,-336.163 1561.24,-320.548 1561.24,-307.237"/>
<polygon fill="black" stroke="black" points="1564.74,-307.175 1561.24,-297.175 1557.74,-307.175 1564.74,-307.175"/>
<text text-anchor="middle" x="1585.74" y="-318.8" font-family="Times New Roman,serif" font-size="14.00">OK 1.37</text>
</g>
<!-- 19 -->
<g id="node20" class="node"><title>19</title>
<ellipse fill="none" stroke="black" cx="1777.24" cy="-279" rx="30.5947" ry="18"/>
<text text-anchor="middle" x="1777.24" y="-275.3" font-family="Times New Roman,serif" font-size="14.00">Done</text>
</g>
<!-- 18&#45;&gt;19 -->
<g id="edge21" class="edge"><title>18&#45;&gt;19</title>
<path fill="none" stroke="black" d="M1777.24,-347.799C1777.24,-336.163 1777.24,-320.548 1777.24,-307.237"/>
<polygon fill="black" stroke="black" points="1780.74,-307.175 1777.24,-297.175 1773.74,-307.175 1780.74,-307.175"/>
<text text-anchor="middle" x="1852.74" y="-318.8" font-family="Times New Roman,serif" font-size="14.00">13_1split.txtComplete 1.40</text>
</g>
<!-- 22 -->
<g id="node23" class="node"><title>22</title>
<ellipse fill="none" stroke="black" cx="1957.24" cy="-279" rx="116.18" ry="18"/>
<text text-anchor="middle" x="1957.24" y="-275.3" font-family="Times New Roman,serif" font-size="14.00">rse&#45;server&#45;15_16_337split.txt</text>
</g>
<!-- 20&#45;&gt;22 -->
<g id="edge22" class="edge"><title>20&#45;&gt;22</title>
<path fill="none" stroke="black" d="M1985.96,-347.799C1980.93,-335.932 1974.15,-319.928 1968.44,-306.449"/>
<polygon fill="black" stroke="black" points="1971.64,-305.019 1964.52,-297.175 1965.19,-307.749 1971.64,-305.019"/>
<text text-anchor="middle" x="2033.74" y="-318.8" font-family="Times New Roman,serif" font-size="14.00">16_337split.txt 0.83</text>
</g>
<!-- 23 -->
<g id="node24" class="node"><title>23</title>
<ellipse fill="none" stroke="black" cx="2122.24" cy="-279" rx="30.5947" ry="18"/>
<text text-anchor="middle" x="2122.24" y="-275.3" font-family="Times New Roman,serif" font-size="14.00">Done</text>
</g>
<!-- 20&#45;&gt;23 -->
<g id="edge23" class="edge"><title>20&#45;&gt;23</title>
<path fill="none" stroke="black" d="M2053.45,-351.605C2067.53,-346.485 2081.76,-339.495 2093.24,-330 2100.97,-323.613 2107.08,-314.599 2111.66,-305.981"/>
<polygon fill="black" stroke="black" points="2114.83,-307.453 2116.03,-296.926 2108.53,-304.408 2114.83,-307.453"/>
<text text-anchor="middle" x="2136.74" y="-318.8" font-family="Times New Roman,serif" font-size="14.00">RB 313.08</text>
</g>
<!-- 24 -->
<g id="node25" class="node"><title>24</title>
<ellipse fill="none" stroke="black" cx="1869.24" cy="-192" rx="126.178" ry="18"/>
<text text-anchor="middle" x="1869.24" y="-188.3" font-family="Times New Roman,serif" font-size="14.00">rse&#45;server&#45;12_16_337_1split.txt</text>
</g>
<!-- 22&#45;&gt;24 -->
<g id="edge24" class="edge"><title>22&#45;&gt;24</title>
<path fill="none" stroke="black" d="M1908.12,-262.673C1898.43,-257.715 1889.14,-251.282 1882.24,-243 1876.97,-236.674 1873.81,-228.457 1871.92,-220.518"/>
<polygon fill="black" stroke="black" points="1875.32,-219.645 1870.11,-210.424 1868.43,-220.887 1875.32,-219.645"/>
<text text-anchor="middle" x="1944.74" y="-231.8" font-family="Times New Roman,serif" font-size="14.00">16_337_1split.txt 0.86</text>
</g>
<!-- 25 -->
<g id="node26" class="node"><title>25</title>
<ellipse fill="none" stroke="black" cx="2044.24" cy="-192" rx="30.5947" ry="18"/>
<text text-anchor="middle" x="2044.24" y="-188.3" font-family="Times New Roman,serif" font-size="14.00">Done</text>
</g>
<!-- 22&#45;&gt;25 -->
<g id="edge25" class="edge"><title>22&#45;&gt;25</title>
<path fill="none" stroke="black" d="M1987.47,-261.508C1995.7,-256.222 2004.26,-249.923 2011.24,-243 2018.51,-235.793 2025.07,-226.738 2030.38,-218.322"/>
<polygon fill="black" stroke="black" points="2033.5,-219.932 2035.64,-209.557 2027.5,-216.33 2033.5,-219.932"/>
<text text-anchor="middle" x="2050.24" y="-231.8" font-family="Times New Roman,serif" font-size="14.00">RB 18.79</text>
</g>
<!-- 26 -->
<g id="node27" class="node"><title>26</title>
<ellipse fill="none" stroke="black" cx="1766.24" cy="-105" rx="135.376" ry="18"/>
<text text-anchor="middle" x="1766.24" y="-101.3" font-family="Times New Roman,serif" font-size="14.00">rse&#45;server&#45;15_16_337_1_1split.txt</text>
</g>
<!-- 24&#45;&gt;26 -->
<g id="edge26" class="edge"><title>24&#45;&gt;26</title>
<path fill="none" stroke="black" d="M1805.55,-176.331C1794.88,-171.392 1784.83,-164.798 1777.24,-156 1771.77,-149.66 1768.84,-141.214 1767.31,-133.071"/>
<polygon fill="black" stroke="black" points="1770.78,-132.582 1766.05,-123.1 1763.84,-133.46 1770.78,-132.582"/>
<text text-anchor="middle" x="1846.74" y="-144.8" font-family="Times New Roman,serif" font-size="14.00">16_337_1_1split.txt 0.66</text>
</g>
<!-- 27 -->
<g id="node28" class="node"><title>27</title>
<ellipse fill="none" stroke="black" cx="1950.24" cy="-105" rx="30.5947" ry="18"/>
<text text-anchor="middle" x="1950.24" y="-101.3" font-family="Times New Roman,serif" font-size="14.00">Done</text>
</g>
<!-- 24&#45;&gt;27 -->
<g id="edge27" class="edge"><title>24&#45;&gt;27</title>
<path fill="none" stroke="black" d="M1897.94,-174.457C1905.72,-169.17 1913.77,-162.883 1920.24,-156 1926.99,-148.821 1932.95,-139.871 1937.74,-131.535"/>
<polygon fill="black" stroke="black" points="1940.94,-132.971 1942.63,-122.512 1934.79,-129.636 1940.94,-132.971"/>
<text text-anchor="middle" x="1958.24" y="-144.8" font-family="Times New Roman,serif" font-size="14.00">RB 29.05</text>
</g>
<!-- 28 -->
<g id="node29" class="node"><title>28</title>
<ellipse fill="none" stroke="black" cx="1766.24" cy="-18" rx="30.5947" ry="18"/>
<text text-anchor="middle" x="1766.24" y="-14.3" font-family="Times New Roman,serif" font-size="14.00">Done</text>
</g>
<!-- 26&#45;&gt;28 -->
<g id="edge28" class="edge"><title>26&#45;&gt;28</title>
<path fill="none" stroke="black" d="M1766.24,-86.799C1766.24,-75.1626 1766.24,-59.5479 1766.24,-46.2368"/>
<polygon fill="black" stroke="black" points="1769.74,-46.1754 1766.24,-36.1754 1762.74,-46.1755 1769.74,-46.1754"/>
<text text-anchor="middle" x="1793.24" y="-57.8" font-family="Times New Roman,serif" font-size="14.00">RB 18.10</text>
</g>
</g>
</svg>
