<?xml version="1.0" encoding="UTF-8" standalone="no"?>
<!DOCTYPE svg PUBLIC "-//W3C//DTD SVG 1.1//EN"
 "http://www.w3.org/Graphics/SVG/1.1/DTD/svg11.dtd">
<!-- Generated by graphviz version 2.38.0 (20140413.2041)
 -->
<!-- Title: TG Pages: 1 -->
<svg width="3439pt" height="566pt"
 viewBox="0.00 0.00 3438.79 566.00" xmlns="http://www.w3.org/2000/svg" xmlns:xlink="http://www.w3.org/1999/xlink">
<g id="graph0" class="graph" transform="scale(1 1) rotate(0) translate(4 562)">
<title>TG</title>
<polygon fill="white" stroke="none" points="-4,4 -4,-562 3434.79,-562 3434.79,4 -4,4"/>
<!-- 0 -->
<g id="node1" class="node"><title>0</title>
<ellipse fill="none" stroke="black" cx="1922.24" cy="-540" rx="38.9931" ry="18"/>
<text text-anchor="middle" x="1922.24" y="-536.3" font-family="Times New Roman,serif" font-size="14.00">Server_</text>
</g>
<!-- 1 -->
<g id="node2" class="node"><title>1</title>
<ellipse fill="none" stroke="black" cx="1922.24" cy="-453" rx="63.0888" ry="18"/>
<text text-anchor="middle" x="1922.24" y="-449.3" font-family="Times New Roman,serif" font-size="14.00">rse&#45;server&#45;15_</text>
</g>
<!-- 0&#45;&gt;1 -->
<g id="edge1" class="edge"><title>0&#45;&gt;1</title>
<path fill="none" stroke="black" d="M1922.24,-521.799C1922.24,-510.163 1922.24,-494.548 1922.24,-481.237"/>
<polygon fill="black" stroke="black" points="1925.74,-481.175 1922.24,-471.175 1918.74,-481.175 1925.74,-481.175"/>
<text text-anchor="middle" x="1936.24" y="-492.8" font-family="Times New Roman,serif" font-size="14.00"> 0.00</text>
</g>
<!-- 2 -->
<g id="node3" class="node"><title>2</title>
<ellipse fill="none" stroke="black" cx="94.2416" cy="-366" rx="94.4839" ry="18"/>
<text text-anchor="middle" x="94.2416" y="-362.3" font-family="Times New Roman,serif" font-size="14.00">rse&#45;server&#45;13_3split.txt</text>
</g>
<!-- 1&#45;&gt;2 -->
<g id="edge2" class="edge"><title>1&#45;&gt;2</title>
<path fill="none" stroke="black" d="M1859.43,-451.34C1680,-449.207 1149.79,-441.169 710.242,-417 524.162,-406.768 307.025,-387.404 186.628,-376.01"/>
<polygon fill="black" stroke="black" points="186.637,-372.495 176.351,-375.034 185.975,-379.464 186.637,-372.495"/>
<text text-anchor="middle" x="748.242" y="-405.8" font-family="Times New Roman,serif" font-size="14.00">3split.txt 0.83</text>
</g>
<!-- 3 -->
<g id="node4" class="node"><title>3</title>
<ellipse fill="none" stroke="black" cx="482.242" cy="-366" rx="94.4839" ry="18"/>
<text text-anchor="middle" x="482.242" y="-362.3" font-family="Times New Roman,serif" font-size="14.00">rse&#45;server&#45;14_4split.txt</text>
</g>
<!-- 1&#45;&gt;3 -->
<g id="edge3" class="edge"><title>1&#45;&gt;3</title>
<path fill="none" stroke="black" d="M1859.48,-451.182C1706,-448.862 1299.53,-440.789 961.242,-417 823.694,-407.327 664.583,-389.368 568.771,-377.812"/>
<polygon fill="black" stroke="black" points="569.188,-374.337 558.84,-376.61 568.347,-381.286 569.188,-374.337"/>
<text text-anchor="middle" x="999.242" y="-405.8" font-family="Times New Roman,serif" font-size="14.00">4split.txt 0.81</text>
</g>
<!-- 4 -->
<g id="node5" class="node"><title>4</title>
<ellipse fill="none" stroke="black" cx="779.242" cy="-366" rx="94.4839" ry="18"/>
<text text-anchor="middle" x="779.242" y="-362.3" font-family="Times New Roman,serif" font-size="14.00">rse&#45;server&#45;12_8split.txt</text>
</g>
<!-- 1&#45;&gt;4 -->
<g id="edge4" class="edge"><title>1&#45;&gt;4</title>
<path fill="none" stroke="black" d="M1859.62,-450.6C1732.49,-447.409 1435.11,-438.174 1186.24,-417 1073.55,-407.412 943.974,-390.467 861.877,-378.99"/>
<polygon fill="black" stroke="black" points="862.247,-375.507 851.857,-377.583 861.273,-382.439 862.247,-375.507"/>
<text text-anchor="middle" x="1224.24" y="-405.8" font-family="Times New Roman,serif" font-size="14.00">8split.txt 0.73</text>
</g>
<!-- 6 -->
<g id="node7" class="node"><title>6</title>
<ellipse fill="none" stroke="black" cx="1035.24" cy="-366" rx="98.5829" ry="18"/>
<text text-anchor="middle" x="1035.24" y="-362.3" font-family="Times New Roman,serif" font-size="14.00">rse&#45;server&#45;13_10split.txt</text>
</g>
<!-- 1&#45;&gt;6 -->
<g id="edge5" class="edge"><title>1&#45;&gt;6</title>
<path fill="none" stroke="black" d="M1860.22,-449.617C1759.23,-445.376 1553.05,-435.204 1379.24,-417 1288.28,-407.473 1184.46,-391.704 1114.89,-380.421"/>
<polygon fill="black" stroke="black" points="1115.31,-376.944 1104.87,-378.791 1114.18,-383.853 1115.31,-376.944"/>
<text text-anchor="middle" x="1420.74" y="-405.8" font-family="Times New Roman,serif" font-size="14.00">10split.txt 0.83</text>
</g>
<!-- 8 -->
<g id="node9" class="node"><title>8</title>
<ellipse fill="none" stroke="black" cx="1274.24" cy="-366" rx="98.5829" ry="18"/>
<text text-anchor="middle" x="1274.24" y="-362.3" font-family="Times New Roman,serif" font-size="14.00">rse&#45;server&#45;14_13split.txt</text>
</g>
<!-- 1&#45;&gt;8 -->
<g id="edge6" class="edge"><title>1&#45;&gt;8</title>
<path fill="none" stroke="black" d="M1861.87,-447.587C1789.87,-441.995 1665.98,-431.333 1560.24,-417 1488.03,-407.212 1406.17,-392.533 1348.59,-381.609"/>
<polygon fill="black" stroke="black" points="1348.96,-378.118 1338.48,-379.684 1347.65,-384.994 1348.96,-378.118"/>
<text text-anchor="middle" x="1601.74" y="-405.8" font-family="Times New Roman,serif" font-size="14.00">13split.txt 0.78</text>
</g>
<!-- 10 -->
<g id="node11" class="node"><title>10</title>
<ellipse fill="none" stroke="black" cx="1490.24" cy="-366" rx="98.5829" ry="18"/>
<text text-anchor="middle" x="1490.24" y="-362.3" font-family="Times New Roman,serif" font-size="14.00">rse&#45;server&#45;14_18split.txt</text>
</g>
<!-- 1&#45;&gt;10 -->
<g id="edge7" class="edge"><title>1&#45;&gt;10</title>
<path fill="none" stroke="black" d="M1868.06,-443.616C1826.22,-436.955 1766.93,-427.106 1715.24,-417 1662.12,-406.613 1602.32,-393.243 1557.72,-382.942"/>
<polygon fill="black" stroke="black" points="1558.41,-379.508 1547.88,-380.66 1556.83,-386.328 1558.41,-379.508"/>
<text text-anchor="middle" x="1756.74" y="-405.8" font-family="Times New Roman,serif" font-size="14.00">18split.txt 0.80</text>
</g>
<!-- 12 -->
<g id="node13" class="node"><title>12</title>
<ellipse fill="none" stroke="black" cx="1706.24" cy="-366" rx="98.5829" ry="18"/>
<text text-anchor="middle" x="1706.24" y="-362.3" font-family="Times New Roman,serif" font-size="14.00">rse&#45;server&#45;14_19split.txt</text>
</g>
<!-- 1&#45;&gt;12 -->
<g id="edge8" class="edge"><title>1&#45;&gt;12</title>
<path fill="none" stroke="black" d="M1886.57,-437.964C1850.82,-423.894 1795.49,-402.12 1755.54,-386.401"/>
<polygon fill="black" stroke="black" points="1756.58,-383.049 1746,-382.644 1754.02,-389.563 1756.58,-383.049"/>
<text text-anchor="middle" x="1868.74" y="-405.8" font-family="Times New Roman,serif" font-size="14.00">19split.txt 0.80</text>
</g>
<!-- 14 -->
<g id="node15" class="node"><title>14</title>
<ellipse fill="none" stroke="black" cx="1922.24" cy="-366" rx="98.5829" ry="18"/>
<text text-anchor="middle" x="1922.24" y="-362.3" font-family="Times New Roman,serif" font-size="14.00">rse&#45;server&#45;12_20split.txt</text>
</g>
<!-- 1&#45;&gt;14 -->
<g id="edge9" class="edge"><title>1&#45;&gt;14</title>
<path fill="none" stroke="black" d="M1922.24,-434.799C1922.24,-423.163 1922.24,-407.548 1922.24,-394.237"/>
<polygon fill="black" stroke="black" points="1925.74,-394.175 1922.24,-384.175 1918.74,-394.175 1925.74,-394.175"/>
<text text-anchor="middle" x="1963.74" y="-405.8" font-family="Times New Roman,serif" font-size="14.00">20split.txt 0.81</text>
</g>
<!-- 24 -->
<g id="node25" class="node"><title>24</title>
<ellipse fill="none" stroke="black" cx="2138.24" cy="-366" rx="98.5829" ry="18"/>
<text text-anchor="middle" x="2138.24" y="-362.3" font-family="Times New Roman,serif" font-size="14.00">rse&#45;server&#45;13_23split.txt</text>
</g>
<!-- 1&#45;&gt;24 -->
<g id="edge10" class="edge"><title>1&#45;&gt;24</title>
<path fill="none" stroke="black" d="M1957.91,-437.964C1993.66,-423.894 2049,-402.12 2088.94,-386.401"/>
<polygon fill="black" stroke="black" points="2090.46,-389.563 2098.49,-382.644 2087.9,-383.049 2090.46,-389.563"/>
<text text-anchor="middle" x="2084.74" y="-405.8" font-family="Times New Roman,serif" font-size="14.00">23split.txt 0.80</text>
</g>
<!-- 30 -->
<g id="node31" class="node"><title>30</title>
<ellipse fill="none" stroke="black" cx="2357.24" cy="-366" rx="102.882" ry="18"/>
<text text-anchor="middle" x="2357.24" y="-362.3" font-family="Times New Roman,serif" font-size="14.00">rse&#45;server&#45;13_239split.txt</text>
</g>
<!-- 1&#45;&gt;30 -->
<g id="edge11" class="edge"><title>1&#45;&gt;30</title>
<path fill="none" stroke="black" d="M1976.25,-443.673C2018.31,-437.004 2078.12,-427.119 2130.24,-417 2183.46,-406.668 2243.34,-393.411 2288.23,-383.144"/>
<polygon fill="black" stroke="black" points="2289.18,-386.516 2298.14,-380.868 2287.61,-379.693 2289.18,-386.516"/>
<text text-anchor="middle" x="2244.24" y="-405.8" font-family="Times New Roman,serif" font-size="14.00">239split.txt 0.79</text>
</g>
<!-- 32 -->
<g id="node33" class="node"><title>32</title>
<ellipse fill="none" stroke="black" cx="2580.24" cy="-366" rx="102.882" ry="18"/>
<text text-anchor="middle" x="2580.24" y="-362.3" font-family="Times New Roman,serif" font-size="14.00">rse&#45;server&#45;14_240split.txt</text>
</g>
<!-- 1&#45;&gt;32 -->
<g id="edge12" class="edge"><title>1&#45;&gt;32</title>
<path fill="none" stroke="black" d="M1982.81,-447.752C2056.4,-442.253 2184.23,-431.614 2293.24,-417 2365.24,-407.347 2446.79,-392.787 2504.51,-381.865"/>
<polygon fill="black" stroke="black" points="2505.47,-385.245 2514.64,-379.939 2504.16,-378.368 2505.47,-385.245"/>
<text text-anchor="middle" x="2434.24" y="-405.8" font-family="Times New Roman,serif" font-size="14.00">240split.txt 0.82</text>
</g>
<!-- 38 -->
<g id="node39" class="node"><title>38</title>
<ellipse fill="none" stroke="black" cx="2803.24" cy="-366" rx="102.882" ry="18"/>
<text text-anchor="middle" x="2803.24" y="-362.3" font-family="Times New Roman,serif" font-size="14.00">rse&#45;server&#45;14_321split.txt</text>
</g>
<!-- 1&#45;&gt;38 -->
<g id="edge13" class="edge"><title>1&#45;&gt;38</title>
<path fill="none" stroke="black" d="M1984.66,-449.995C2088.42,-446.24 2302.8,-436.683 2483.24,-417 2566.15,-407.957 2660.4,-392.609 2725.02,-381.298"/>
<polygon fill="black" stroke="black" points="2725.89,-384.699 2735.13,-379.519 2724.68,-377.805 2725.89,-384.699"/>
<text text-anchor="middle" x="2634.24" y="-405.8" font-family="Times New Roman,serif" font-size="14.00">321split.txt 0.79</text>
</g>
<!-- 40 -->
<g id="node41" class="node"><title>40</title>
<ellipse fill="none" stroke="black" cx="3026.24" cy="-366" rx="102.882" ry="18"/>
<text text-anchor="middle" x="3026.24" y="-362.3" font-family="Times New Roman,serif" font-size="14.00">rse&#45;server&#45;13_550split.txt</text>
</g>
<!-- 1&#45;&gt;40 -->
<g id="edge14" class="edge"><title>1&#45;&gt;40</title>
<path fill="none" stroke="black" d="M1985.02,-451.136C2115.39,-448.896 2424.82,-441.266 2683.24,-417 2773.9,-408.487 2877.21,-392.571 2946.55,-380.976"/>
<polygon fill="black" stroke="black" points="2947.25,-384.408 2956.53,-379.298 2946.09,-377.505 2947.25,-384.408"/>
<text text-anchor="middle" x="2852.24" y="-405.8" font-family="Times New Roman,serif" font-size="14.00">550split.txt 0.80</text>
</g>
<!-- 44 -->
<g id="node45" class="node"><title>44</title>
<ellipse fill="none" stroke="black" cx="3249.24" cy="-366" rx="102.882" ry="18"/>
<text text-anchor="middle" x="3249.24" y="-362.3" font-family="Times New Roman,serif" font-size="14.00">rse&#45;server&#45;14_582split.txt</text>
</g>
<!-- 1&#45;&gt;44 -->
<g id="edge15" class="edge"><title>1&#45;&gt;44</title>
<path fill="none" stroke="black" d="M1985.37,-451.984C2141.19,-451.457 2556.45,-447.088 2901.24,-417 2993.83,-408.921 3099.38,-392.764 3169.73,-380.997"/>
<polygon fill="black" stroke="black" points="3170.57,-384.406 3179.85,-379.294 3169.41,-377.503 3170.57,-384.406"/>
<text text-anchor="middle" x="3071.24" y="-405.8" font-family="Times New Roman,serif" font-size="14.00">582split.txt 0.82</text>
</g>
<!-- 47 -->
<g id="node48" class="node"><title>47</title>
<ellipse fill="none" stroke="black" cx="3400.24" cy="-366" rx="30.5947" ry="18"/>
<text text-anchor="middle" x="3400.24" y="-362.3" font-family="Times New Roman,serif" font-size="14.00">Done</text>
</g>
<!-- 1&#45;&gt;47 -->
<g id="edge16" class="edge"><title>1&#45;&gt;47</title>
<path fill="none" stroke="black" d="M1985.37,-452.528C2163.87,-453.509 2687.37,-452.857 3120.24,-417 3227.98,-408.075 3257.15,-413.209 3361.24,-384 3363.52,-383.36 3365.84,-382.614 3368.16,-381.798"/>
<polygon fill="black" stroke="black" points="3369.48,-385.038 3377.53,-378.145 3366.94,-378.516 3369.48,-385.038"/>
<text text-anchor="middle" x="3314.74" y="-405.8" font-family="Times New Roman,serif" font-size="14.00">RB 398.08</text>
</g>
<!-- 5 -->
<g id="node6" class="node"><title>5</title>
<ellipse fill="none" stroke="black" cx="68.2416" cy="-279" rx="30.5947" ry="18"/>
<text text-anchor="middle" x="68.2416" y="-275.3" font-family="Times New Roman,serif" font-size="14.00">Done</text>
</g>
<!-- 2&#45;&gt;5 -->
<g id="edge17" class="edge"><title>2&#45;&gt;5</title>
<path fill="none" stroke="black" d="M79.0065,-347.983C75.0742,-342.599 71.3565,-336.379 69.2416,-330 66.8646,-322.83 65.9878,-314.759 65.8659,-307.227"/>
<polygon fill="black" stroke="black" points="69.3683,-307.173 66.1187,-297.088 62.3705,-306.998 69.3683,-307.173"/>
<text text-anchor="middle" x="141.742" y="-318.8" font-family="Times New Roman,serif" font-size="14.00">3_2split.txtComplete 2.51</text>
</g>
<!-- 7 -->
<g id="node8" class="node"><title>7</title>
<ellipse fill="none" stroke="black" cx="232.242" cy="-279" rx="30.5947" ry="18"/>
<text text-anchor="middle" x="232.242" y="-275.3" font-family="Times New Roman,serif" font-size="14.00">Done</text>
</g>
<!-- 3&#45;&gt;7 -->
<g id="edge18" class="edge"><title>3&#45;&gt;7</title>
<path fill="none" stroke="black" d="M389.333,-362.687C330.299,-359.182 261.184,-350.63 240.242,-330 234.253,-324.101 231.622,-315.632 230.676,-307.337"/>
<polygon fill="black" stroke="black" points="234.164,-306.975 230.253,-297.129 227.17,-307.265 234.164,-306.975"/>
<text text-anchor="middle" x="264.742" y="-318.8" font-family="Times New Roman,serif" font-size="14.00">OK 2.70</text>
</g>
<!-- 13 -->
<g id="node14" class="node"><title>13</title>
<ellipse fill="none" stroke="black" cx="311.242" cy="-279" rx="30.5947" ry="18"/>
<text text-anchor="middle" x="311.242" y="-275.3" font-family="Times New Roman,serif" font-size="14.00">Done</text>
</g>
<!-- 4&#45;&gt;13 -->
<g id="edge21" class="edge"><title>4&#45;&gt;13</title>
<path fill="none" stroke="black" d="M694.379,-358.076C634.282,-352.44 551.939,-343.236 480.242,-330 421.622,-319.178 406.639,-316.307 350.242,-297 348.141,-296.281 345.996,-295.496 343.845,-294.671"/>
<polygon fill="black" stroke="black" points="345.09,-291.399 334.508,-290.876 342.454,-297.884 345.09,-291.399"/>
<text text-anchor="middle" x="507.242" y="-318.8" font-family="Times New Roman,serif" font-size="14.00">RB 32.07</text>
</g>
<!-- 16 -->
<g id="node17" class="node"><title>16</title>
<ellipse fill="none" stroke="black" cx="467.242" cy="-279" rx="107.781" ry="18"/>
<text text-anchor="middle" x="467.242" y="-275.3" font-family="Times New Roman,serif" font-size="14.00">rse&#45;server&#45;12_10_2split.txt</text>
</g>
<!-- 6&#45;&gt;16 -->
<g id="edge23" class="edge"><title>6&#45;&gt;16</title>
<path fill="none" stroke="black" d="M953.872,-355.783C930.731,-353.209 905.498,-350.448 882.242,-348 801.845,-339.536 781.116,-342.466 701.242,-330 644.839,-321.197 581.564,-307.438 535.046,-296.58"/>
<polygon fill="black" stroke="black" points="535.622,-293.12 525.087,-294.24 534.021,-299.934 535.622,-293.12"/>
<text text-anchor="middle" x="749.742" y="-318.8" font-family="Times New Roman,serif" font-size="14.00">10_2split.txt 0.77</text>
</g>
<!-- 18 -->
<g id="node19" class="node"><title>18</title>
<ellipse fill="none" stroke="black" cx="701.242" cy="-279" rx="107.781" ry="18"/>
<text text-anchor="middle" x="701.242" y="-275.3" font-family="Times New Roman,serif" font-size="14.00">rse&#45;server&#45;12_10_3split.txt</text>
</g>
<!-- 6&#45;&gt;18 -->
<g id="edge24" class="edge"><title>6&#45;&gt;18</title>
<path fill="none" stroke="black" d="M963.494,-353.518C929.535,-347.513 888.556,-339.442 852.242,-330 818.745,-321.291 781.854,-309.125 752.921,-298.974"/>
<polygon fill="black" stroke="black" points="754.025,-295.653 743.43,-295.617 751.691,-302.252 754.025,-295.653"/>
<text text-anchor="middle" x="900.742" y="-318.8" font-family="Times New Roman,serif" font-size="14.00">10_3split.txt 0.76</text>
</g>
<!-- 20 -->
<g id="node21" class="node"><title>20</title>
<ellipse fill="none" stroke="black" cx="935.242" cy="-279" rx="107.781" ry="18"/>
<text text-anchor="middle" x="935.242" y="-275.3" font-family="Times New Roman,serif" font-size="14.00">rse&#45;server&#45;12_10_4split.txt</text>
</g>
<!-- 6&#45;&gt;20 -->
<g id="edge25" class="edge"><title>6&#45;&gt;20</title>
<path fill="none" stroke="black" d="M994.611,-349.517C984.279,-344.342 973.715,-337.847 965.242,-330 958.01,-323.303 951.94,-314.469 947.194,-306.091"/>
<polygon fill="black" stroke="black" points="950.151,-304.194 942.406,-296.964 943.952,-307.445 950.151,-304.194"/>
<text text-anchor="middle" x="1013.74" y="-318.8" font-family="Times New Roman,serif" font-size="14.00">10_4split.txt 0.73</text>
</g>
<!-- 22 -->
<g id="node23" class="node"><title>22</title>
<ellipse fill="none" stroke="black" cx="1169.24" cy="-279" rx="107.781" ry="18"/>
<text text-anchor="middle" x="1169.24" y="-275.3" font-family="Times New Roman,serif" font-size="14.00">rse&#45;server&#45;12_10_5split.txt</text>
</g>
<!-- 6&#45;&gt;22 -->
<g id="edge26" class="edge"><title>6&#45;&gt;22</title>
<path fill="none" stroke="black" d="M1060.84,-348.487C1076.04,-338.707 1095.71,-326.098 1113.24,-315 1119.98,-310.732 1127.2,-306.197 1134.14,-301.856"/>
<polygon fill="black" stroke="black" points="1136.09,-304.764 1142.71,-296.496 1132.38,-298.829 1136.09,-304.764"/>
<text text-anchor="middle" x="1161.74" y="-318.8" font-family="Times New Roman,serif" font-size="14.00">10_5split.txt 0.74</text>
</g>
<!-- 23 -->
<g id="node24" class="node"><title>23</title>
<ellipse fill="none" stroke="black" cx="1325.24" cy="-279" rx="30.5947" ry="18"/>
<text text-anchor="middle" x="1325.24" y="-275.3" font-family="Times New Roman,serif" font-size="14.00">Done</text>
</g>
<!-- 6&#45;&gt;23 -->
<g id="edge27" class="edge"><title>6&#45;&gt;23</title>
<path fill="none" stroke="black" d="M1108.91,-353.85C1140.5,-348.153 1177.57,-340.233 1210.24,-330 1245.38,-318.994 1252.47,-311.691 1286.24,-297 1288.07,-296.204 1289.95,-295.388 1291.84,-294.563"/>
<polygon fill="black" stroke="black" points="1293.55,-297.637 1301.32,-290.434 1290.75,-291.219 1293.55,-297.637"/>
<text text-anchor="middle" x="1278.74" y="-318.8" font-family="Times New Roman,serif" font-size="14.00">RB 105.54</text>
</g>
<!-- 9 -->
<g id="node10" class="node"><title>9</title>
<ellipse fill="none" stroke="black" cx="1404.24" cy="-279" rx="30.5947" ry="18"/>
<text text-anchor="middle" x="1404.24" y="-275.3" font-family="Times New Roman,serif" font-size="14.00">Done</text>
</g>
<!-- 8&#45;&gt;9 -->
<g id="edge19" class="edge"><title>8&#45;&gt;9</title>
<path fill="none" stroke="black" d="M1291.56,-347.961C1302.62,-337.638 1317.58,-324.646 1332.24,-315 1339.31,-310.35 1355.94,-302.208 1371.43,-294.947"/>
<polygon fill="black" stroke="black" points="1373.24,-297.964 1380.84,-290.578 1370.3,-291.615 1373.24,-297.964"/>
<text text-anchor="middle" x="1407.74" y="-318.8" font-family="Times New Roman,serif" font-size="14.00">13_1split.txtComplete 1.70</text>
</g>
<!-- 11 -->
<g id="node12" class="node"><title>11</title>
<ellipse fill="none" stroke="black" cx="1483.24" cy="-279" rx="30.5947" ry="18"/>
<text text-anchor="middle" x="1483.24" y="-275.3" font-family="Times New Roman,serif" font-size="14.00">Done</text>
</g>
<!-- 10&#45;&gt;11 -->
<g id="edge20" class="edge"><title>10&#45;&gt;11</title>
<path fill="none" stroke="black" d="M1488.83,-347.799C1487.87,-336.163 1486.58,-320.548 1485.48,-307.237"/>
<polygon fill="black" stroke="black" points="1488.97,-306.854 1484.66,-297.175 1481.99,-307.429 1488.97,-306.854"/>
<text text-anchor="middle" x="1511.74" y="-318.8" font-family="Times New Roman,serif" font-size="14.00">OK 2.36</text>
</g>
<!-- 26 -->
<g id="node27" class="node"><title>26</title>
<ellipse fill="none" stroke="black" cx="1639.24" cy="-279" rx="107.781" ry="18"/>
<text text-anchor="middle" x="1639.24" y="-275.3" font-family="Times New Roman,serif" font-size="14.00">rse&#45;server&#45;12_19_1split.txt</text>
</g>
<!-- 12&#45;&gt;26 -->
<g id="edge32" class="edge"><title>12&#45;&gt;26</title>
<path fill="none" stroke="black" d="M1689.23,-348.045C1683.91,-342.466 1678.16,-336.121 1673.24,-330 1667.13,-322.388 1660.97,-313.708 1655.61,-305.74"/>
<polygon fill="black" stroke="black" points="1658.36,-303.561 1649.93,-297.142 1652.52,-307.417 1658.36,-303.561"/>
<text text-anchor="middle" x="1721.74" y="-318.8" font-family="Times New Roman,serif" font-size="14.00">19_1split.txt 0.82</text>
</g>
<!-- 31 -->
<g id="node32" class="node"><title>31</title>
<ellipse fill="none" stroke="black" cx="1795.24" cy="-279" rx="30.5947" ry="18"/>
<text text-anchor="middle" x="1795.24" y="-275.3" font-family="Times New Roman,serif" font-size="14.00">Done</text>
</g>
<!-- 12&#45;&gt;31 -->
<g id="edge33" class="edge"><title>12&#45;&gt;31</title>
<path fill="none" stroke="black" d="M1744.09,-349.204C1753.43,-344.06 1762.86,-337.659 1770.24,-330 1776.73,-323.27 1781.87,-314.527 1785.77,-306.238"/>
<polygon fill="black" stroke="black" points="1789.06,-307.435 1789.77,-296.864 1782.62,-304.686 1789.06,-307.435"/>
<text text-anchor="middle" x="1811.74" y="-318.8" font-family="Times New Roman,serif" font-size="14.00">RB 205.18</text>
</g>
<!-- 15 -->
<g id="node16" class="node"><title>15</title>
<ellipse fill="none" stroke="black" cx="1874.24" cy="-279" rx="30.5947" ry="18"/>
<text text-anchor="middle" x="1874.24" y="-275.3" font-family="Times New Roman,serif" font-size="14.00">Done</text>
</g>
<!-- 14&#45;&gt;15 -->
<g id="edge22" class="edge"><title>14&#45;&gt;15</title>
<path fill="none" stroke="black" d="M1912.53,-347.799C1905.63,-335.58 1896.25,-318.976 1888.5,-305.257"/>
<polygon fill="black" stroke="black" points="1891.42,-303.297 1883.45,-296.31 1885.32,-306.739 1891.42,-303.297"/>
<text text-anchor="middle" x="1924.74" y="-318.8" font-family="Times New Roman,serif" font-size="14.00">RB 2.77</text>
</g>
<!-- 17 -->
<g id="node18" class="node"><title>17</title>
<ellipse fill="none" stroke="black" cx="467.242" cy="-192" rx="30.5947" ry="18"/>
<text text-anchor="middle" x="467.242" y="-188.3" font-family="Times New Roman,serif" font-size="14.00">Done</text>
</g>
<!-- 16&#45;&gt;17 -->
<g id="edge28" class="edge"><title>16&#45;&gt;17</title>
<path fill="none" stroke="black" d="M467.242,-260.799C467.242,-249.163 467.242,-233.548 467.242,-220.237"/>
<polygon fill="black" stroke="black" points="470.742,-220.175 467.242,-210.175 463.742,-220.175 470.742,-220.175"/>
<text text-anchor="middle" x="494.242" y="-231.8" font-family="Times New Roman,serif" font-size="14.00">RB 33.80</text>
</g>
<!-- 19 -->
<g id="node20" class="node"><title>19</title>
<ellipse fill="none" stroke="black" cx="701.242" cy="-192" rx="30.5947" ry="18"/>
<text text-anchor="middle" x="701.242" y="-188.3" font-family="Times New Roman,serif" font-size="14.00">Done</text>
</g>
<!-- 18&#45;&gt;19 -->
<g id="edge29" class="edge"><title>18&#45;&gt;19</title>
<path fill="none" stroke="black" d="M701.242,-260.799C701.242,-249.163 701.242,-233.548 701.242,-220.237"/>
<polygon fill="black" stroke="black" points="704.742,-220.175 701.242,-210.175 697.742,-220.175 704.742,-220.175"/>
<text text-anchor="middle" x="724.742" y="-231.8" font-family="Times New Roman,serif" font-size="14.00">RB 1.75</text>
</g>
<!-- 21 -->
<g id="node22" class="node"><title>21</title>
<ellipse fill="none" stroke="black" cx="935.242" cy="-192" rx="30.5947" ry="18"/>
<text text-anchor="middle" x="935.242" y="-188.3" font-family="Times New Roman,serif" font-size="14.00">Done</text>
</g>
<!-- 20&#45;&gt;21 -->
<g id="edge30" class="edge"><title>20&#45;&gt;21</title>
<path fill="none" stroke="black" d="M935.242,-260.799C935.242,-249.163 935.242,-233.548 935.242,-220.237"/>
<polygon fill="black" stroke="black" points="938.742,-220.175 935.242,-210.175 931.742,-220.175 938.742,-220.175"/>
<text text-anchor="middle" x="958.742" y="-231.8" font-family="Times New Roman,serif" font-size="14.00">RB 1.66</text>
</g>
<!-- 25 -->
<g id="node26" class="node"><title>25</title>
<ellipse fill="none" stroke="black" cx="1169.24" cy="-192" rx="30.5947" ry="18"/>
<text text-anchor="middle" x="1169.24" y="-188.3" font-family="Times New Roman,serif" font-size="14.00">Done</text>
</g>
<!-- 22&#45;&gt;25 -->
<g id="edge31" class="edge"><title>22&#45;&gt;25</title>
<path fill="none" stroke="black" d="M1169.24,-260.799C1169.24,-249.163 1169.24,-233.548 1169.24,-220.237"/>
<polygon fill="black" stroke="black" points="1172.74,-220.175 1169.24,-210.175 1165.74,-220.175 1172.74,-220.175"/>
<text text-anchor="middle" x="1196.24" y="-231.8" font-family="Times New Roman,serif" font-size="14.00">RB 36.79</text>
</g>
<!-- 28 -->
<g id="node29" class="node"><title>28</title>
<ellipse fill="none" stroke="black" cx="2035.24" cy="-279" rx="112.38" ry="18"/>
<text text-anchor="middle" x="2035.24" y="-275.3" font-family="Times New Roman,serif" font-size="14.00">rse&#45;server&#45;12_23_70split.txt</text>
</g>
<!-- 24&#45;&gt;28 -->
<g id="edge35" class="edge"><title>24&#45;&gt;28</title>
<path fill="none" stroke="black" d="M2087.21,-350.378C2075.97,-345.324 2064.86,-338.672 2056.24,-330 2049.92,-323.639 2045.39,-315.089 2042.2,-306.859"/>
<polygon fill="black" stroke="black" points="2045.44,-305.514 2038.94,-297.148 2038.81,-307.742 2045.44,-305.514"/>
<text text-anchor="middle" x="2108.24" y="-318.8" font-family="Times New Roman,serif" font-size="14.00">23_70split.txt 0.83</text>
</g>
<!-- 29 -->
<g id="node30" class="node"><title>29</title>
<ellipse fill="none" stroke="black" cx="2196.24" cy="-279" rx="30.5947" ry="18"/>
<text text-anchor="middle" x="2196.24" y="-275.3" font-family="Times New Roman,serif" font-size="14.00">Done</text>
</g>
<!-- 24&#45;&gt;29 -->
<g id="edge36" class="edge"><title>24&#45;&gt;29</title>
<path fill="none" stroke="black" d="M2149.98,-347.799C2158.45,-335.383 2170.01,-318.439 2179.46,-304.596"/>
<polygon fill="black" stroke="black" points="2182.56,-306.258 2185.31,-296.025 2176.78,-302.313 2182.56,-306.258"/>
<text text-anchor="middle" x="2198.24" y="-318.8" font-family="Times New Roman,serif" font-size="14.00">RB 96.16</text>
</g>
<!-- 27 -->
<g id="node28" class="node"><title>27</title>
<ellipse fill="none" stroke="black" cx="1639.24" cy="-192" rx="30.5947" ry="18"/>
<text text-anchor="middle" x="1639.24" y="-188.3" font-family="Times New Roman,serif" font-size="14.00">Done</text>
</g>
<!-- 26&#45;&gt;27 -->
<g id="edge34" class="edge"><title>26&#45;&gt;27</title>
<path fill="none" stroke="black" d="M1639.24,-260.799C1639.24,-249.163 1639.24,-233.548 1639.24,-220.237"/>
<polygon fill="black" stroke="black" points="1642.74,-220.175 1639.24,-210.175 1635.74,-220.175 1642.74,-220.175"/>
<text text-anchor="middle" x="1666.24" y="-231.8" font-family="Times New Roman,serif" font-size="14.00">RB 83.85</text>
</g>
<!-- 33 -->
<g id="node34" class="node"><title>33</title>
<ellipse fill="none" stroke="black" cx="1794.24" cy="-192" rx="30.5947" ry="18"/>
<text text-anchor="middle" x="1794.24" y="-188.3" font-family="Times New Roman,serif" font-size="14.00">Done</text>
</g>
<!-- 28&#45;&gt;33 -->
<g id="edge37" class="edge"><title>28&#45;&gt;33</title>
<path fill="none" stroke="black" d="M1986.55,-262.667C1945.61,-249.506 1885.71,-229.609 1834.24,-210 1832.04,-209.161 1829.78,-208.274 1827.51,-207.363"/>
<polygon fill="black" stroke="black" points="1828.81,-204.115 1818.24,-203.545 1826.15,-210.588 1828.81,-204.115"/>
<text text-anchor="middle" x="1949.24" y="-231.8" font-family="Times New Roman,serif" font-size="14.00">RB 40.26</text>
</g>
<!-- 34 -->
<g id="node35" class="node"><title>34</title>
<ellipse fill="none" stroke="black" cx="2357.24" cy="-279" rx="112.38" ry="18"/>
<text text-anchor="middle" x="2357.24" y="-275.3" font-family="Times New Roman,serif" font-size="14.00">rse&#45;server&#45;12_239_1split.txt</text>
</g>
<!-- 30&#45;&gt;34 -->
<g id="edge38" class="edge"><title>30&#45;&gt;34</title>
<path fill="none" stroke="black" d="M2357.24,-347.799C2357.24,-336.163 2357.24,-320.548 2357.24,-307.237"/>
<polygon fill="black" stroke="black" points="2360.74,-307.175 2357.24,-297.175 2353.74,-307.175 2360.74,-307.175"/>
<text text-anchor="middle" x="2409.24" y="-318.8" font-family="Times New Roman,serif" font-size="14.00">239_1split.txt 0.81</text>
</g>
<!-- 35 -->
<g id="node36" class="node"><title>35</title>
<ellipse fill="none" stroke="black" cx="2518.24" cy="-279" rx="30.5947" ry="18"/>
<text text-anchor="middle" x="2518.24" y="-275.3" font-family="Times New Roman,serif" font-size="14.00">Done</text>
</g>
<!-- 30&#45;&gt;35 -->
<g id="edge39" class="edge"><title>30&#45;&gt;35</title>
<path fill="none" stroke="black" d="M2415.89,-351.164C2432.5,-345.896 2450.15,-338.941 2465.24,-330 2477.44,-322.776 2489.11,-312.297 2498.38,-302.797"/>
<polygon fill="black" stroke="black" points="2500.97,-305.153 2505.27,-295.468 2495.87,-300.36 2500.97,-305.153"/>
<text text-anchor="middle" x="2512.24" y="-318.8" font-family="Times New Roman,serif" font-size="14.00">RB 35.36</text>
</g>
<!-- 36 -->
<g id="node37" class="node"><title>36</title>
<ellipse fill="none" stroke="black" cx="2679.24" cy="-279" rx="112.38" ry="18"/>
<text text-anchor="middle" x="2679.24" y="-275.3" font-family="Times New Roman,serif" font-size="14.00">rse&#45;server&#45;13_240_1split.txt</text>
</g>
<!-- 32&#45;&gt;36 -->
<g id="edge40" class="edge"><title>32&#45;&gt;36</title>
<path fill="none" stroke="black" d="M2599.8,-348.207C2614.72,-335.401 2635.44,-317.607 2651.98,-303.404"/>
<polygon fill="black" stroke="black" points="2654.42,-305.928 2659.72,-296.758 2649.86,-300.617 2654.42,-305.928"/>
<text text-anchor="middle" x="2688.24" y="-318.8" font-family="Times New Roman,serif" font-size="14.00">240_1split.txt 0.84</text>
</g>
<!-- 37 -->
<g id="node38" class="node"><title>37</title>
<ellipse fill="none" stroke="black" cx="2840.24" cy="-279" rx="30.5947" ry="18"/>
<text text-anchor="middle" x="2840.24" y="-275.3" font-family="Times New Roman,serif" font-size="14.00">Done</text>
</g>
<!-- 32&#45;&gt;37 -->
<g id="edge41" class="edge"><title>32&#45;&gt;37</title>
<path fill="none" stroke="black" d="M2654.49,-353.552C2683.03,-348.018 2715.61,-340.295 2744.24,-330 2767.69,-321.568 2792.6,-308.457 2811.17,-297.776"/>
<polygon fill="black" stroke="black" points="2813.14,-300.678 2820,-292.604 2809.6,-294.637 2813.14,-300.678"/>
<text text-anchor="middle" x="2804.24" y="-318.8" font-family="Times New Roman,serif" font-size="14.00">RB 54.78</text>
</g>
<!-- 42 -->
<g id="node43" class="node"><title>42</title>
<ellipse fill="none" stroke="black" cx="1969.24" cy="-192" rx="126.178" ry="18"/>
<text text-anchor="middle" x="1969.24" y="-188.3" font-family="Times New Roman,serif" font-size="14.00">rse&#45;server&#45;13_239_1_69split.txt</text>
</g>
<!-- 34&#45;&gt;42 -->
<g id="edge44" class="edge"><title>34&#45;&gt;42</title>
<path fill="none" stroke="black" d="M2281.84,-265.615C2246.08,-259.412 2202.83,-251.435 2164.24,-243 2120.68,-233.477 2072.09,-221.026 2034.32,-210.931"/>
<polygon fill="black" stroke="black" points="2035.03,-207.497 2024.46,-208.285 2033.22,-214.258 2035.03,-207.497"/>
<text text-anchor="middle" x="2226.74" y="-231.8" font-family="Times New Roman,serif" font-size="14.00">239_1_69split.txt 0.69</text>
</g>
<!-- 46 -->
<g id="node47" class="node"><title>46</title>
<ellipse fill="none" stroke="black" cx="2242.24" cy="-192" rx="126.178" ry="18"/>
<text text-anchor="middle" x="2242.24" y="-188.3" font-family="Times New Roman,serif" font-size="14.00">rse&#45;server&#45;14_239_1_79split.txt</text>
</g>
<!-- 34&#45;&gt;46 -->
<g id="edge45" class="edge"><title>34&#45;&gt;46</title>
<path fill="none" stroke="black" d="M2334.52,-261.207C2316.96,-248.226 2292.46,-230.12 2273.12,-215.825"/>
<polygon fill="black" stroke="black" points="2275.04,-212.888 2264.91,-209.758 2270.88,-218.517 2275.04,-212.888"/>
<text text-anchor="middle" x="2369.74" y="-231.8" font-family="Times New Roman,serif" font-size="14.00">239_1_79split.txt 0.82</text>
</g>
<!-- 48 -->
<g id="node49" class="node"><title>48</title>
<ellipse fill="none" stroke="black" cx="2512.24" cy="-192" rx="126.178" ry="18"/>
<text text-anchor="middle" x="2512.24" y="-188.3" font-family="Times New Roman,serif" font-size="14.00">rse&#45;server&#45;15_239_1_96split.txt</text>
</g>
<!-- 34&#45;&gt;48 -->
<g id="edge46" class="edge"><title>34&#45;&gt;48</title>
<path fill="none" stroke="black" d="M2396.83,-261.982C2409.63,-256.405 2423.73,-249.826 2436.24,-243 2451.25,-234.809 2467.16,-224.602 2480.53,-215.549"/>
<polygon fill="black" stroke="black" points="2482.64,-218.344 2488.9,-209.8 2478.68,-212.573 2482.64,-218.344"/>
<text text-anchor="middle" x="2522.74" y="-231.8" font-family="Times New Roman,serif" font-size="14.00">239_1_96split.txt 0.82</text>
</g>
<!-- 49 -->
<g id="node50" class="node"><title>49</title>
<ellipse fill="none" stroke="black" cx="2687.24" cy="-192" rx="30.5947" ry="18"/>
<text text-anchor="middle" x="2687.24" y="-188.3" font-family="Times New Roman,serif" font-size="14.00">Done</text>
</g>
<!-- 34&#45;&gt;49 -->
<g id="edge47" class="edge"><title>34&#45;&gt;49</title>
<path fill="none" stroke="black" d="M2437.98,-266.444C2501.99,-257.184 2581.9,-245.359 2589.24,-243 2613.62,-235.17 2639.34,-221.829 2658.31,-210.896"/>
<polygon fill="black" stroke="black" points="2660.21,-213.844 2667.05,-205.757 2656.66,-207.811 2660.21,-213.844"/>
<text text-anchor="middle" x="2656.74" y="-231.8" font-family="Times New Roman,serif" font-size="14.00">RB 152.92</text>
</g>
<!-- 39 -->
<g id="node40" class="node"><title>39</title>
<ellipse fill="none" stroke="black" cx="2768.24" cy="-192" rx="30.5947" ry="18"/>
<text text-anchor="middle" x="2768.24" y="-188.3" font-family="Times New Roman,serif" font-size="14.00">Done</text>
</g>
<!-- 36&#45;&gt;39 -->
<g id="edge42" class="edge"><title>36&#45;&gt;39</title>
<path fill="none" stroke="black" d="M2720.18,-262.178C2729.61,-257.118 2738.98,-250.764 2746.24,-243 2752.41,-236.401 2757.04,-227.79 2760.41,-219.577"/>
<polygon fill="black" stroke="black" points="2763.8,-220.514 2763.93,-209.92 2757.22,-218.119 2763.8,-220.514"/>
<text text-anchor="middle" x="2787.74" y="-231.8" font-family="Times New Roman,serif" font-size="14.00">RB 112.22</text>
</g>
<!-- 43 -->
<g id="node44" class="node"><title>43</title>
<ellipse fill="none" stroke="black" cx="2919.24" cy="-279" rx="30.5947" ry="18"/>
<text text-anchor="middle" x="2919.24" y="-275.3" font-family="Times New Roman,serif" font-size="14.00">Done</text>
</g>
<!-- 38&#45;&gt;43 -->
<g id="edge48" class="edge"><title>38&#45;&gt;43</title>
<path fill="none" stroke="black" d="M2862.54,-351.092C2875.1,-346.035 2887.49,-339.202 2897.24,-330 2903.89,-323.732 2908.64,-315.103 2912,-306.777"/>
<polygon fill="black" stroke="black" points="2915.31,-307.896 2915.31,-297.301 2908.7,-305.583 2915.31,-307.896"/>
<text text-anchor="middle" x="2935.24" y="-318.8" font-family="Times New Roman,serif" font-size="14.00">RB 98.57</text>
</g>
<!-- 41 -->
<g id="node42" class="node"><title>41</title>
<ellipse fill="none" stroke="black" cx="3026.24" cy="-279" rx="30.5947" ry="18"/>
<text text-anchor="middle" x="3026.24" y="-275.3" font-family="Times New Roman,serif" font-size="14.00">Done</text>
</g>
<!-- 40&#45;&gt;41 -->
<g id="edge43" class="edge"><title>40&#45;&gt;41</title>
<path fill="none" stroke="black" d="M3026.24,-347.799C3026.24,-336.163 3026.24,-320.548 3026.24,-307.237"/>
<polygon fill="black" stroke="black" points="3029.74,-307.175 3026.24,-297.175 3022.74,-307.175 3029.74,-307.175"/>
<text text-anchor="middle" x="3053.24" y="-318.8" font-family="Times New Roman,serif" font-size="14.00">RB 11.63</text>
</g>
<!-- 50 -->
<g id="node51" class="node"><title>50</title>
<ellipse fill="none" stroke="black" cx="1783.24" cy="-105" rx="135.376" ry="18"/>
<text text-anchor="middle" x="1783.24" y="-101.3" font-family="Times New Roman,serif" font-size="14.00">rse&#45;server&#45;12_239_1_69_1split.txt</text>
</g>
<!-- 42&#45;&gt;50 -->
<g id="edge50" class="edge"><title>42&#45;&gt;50</title>
<path fill="none" stroke="black" d="M1881.56,-179.012C1862.07,-173.866 1842.18,-166.512 1825.24,-156 1815.31,-149.84 1806.57,-140.537 1799.67,-131.618"/>
<polygon fill="black" stroke="black" points="1802.34,-129.342 1793.64,-123.301 1796.68,-133.452 1802.34,-129.342"/>
<text text-anchor="middle" x="1894.74" y="-144.8" font-family="Times New Roman,serif" font-size="14.00">239_1_69_1split.txt 0.85</text>
</g>
<!-- 51 -->
<g id="node52" class="node"><title>51</title>
<ellipse fill="none" stroke="black" cx="1967.24" cy="-105" rx="30.5947" ry="18"/>
<text text-anchor="middle" x="1967.24" y="-101.3" font-family="Times New Roman,serif" font-size="14.00">Done</text>
</g>
<!-- 42&#45;&gt;51 -->
<g id="edge51" class="edge"><title>42&#45;&gt;51</title>
<path fill="none" stroke="black" d="M1968.84,-173.799C1968.56,-162.163 1968.2,-146.548 1967.88,-133.237"/>
<polygon fill="black" stroke="black" points="1971.38,-133.09 1967.65,-123.175 1964.38,-133.255 1971.38,-133.09"/>
<text text-anchor="middle" x="1996.24" y="-144.8" font-family="Times New Roman,serif" font-size="14.00">RB 36.63</text>
</g>
<!-- 45 -->
<g id="node46" class="node"><title>45</title>
<ellipse fill="none" stroke="black" cx="3249.24" cy="-279" rx="30.5947" ry="18"/>
<text text-anchor="middle" x="3249.24" y="-275.3" font-family="Times New Roman,serif" font-size="14.00">Done</text>
</g>
<!-- 44&#45;&gt;45 -->
<g id="edge49" class="edge"><title>44&#45;&gt;45</title>
<path fill="none" stroke="black" d="M3249.24,-347.799C3249.24,-336.163 3249.24,-320.548 3249.24,-307.237"/>
<polygon fill="black" stroke="black" points="3252.74,-307.175 3249.24,-297.175 3245.74,-307.175 3252.74,-307.175"/>
<text text-anchor="middle" x="3328.24" y="-318.8" font-family="Times New Roman,serif" font-size="14.00">582_1split.txtComplete 0.93</text>
</g>
<!-- 52 -->
<g id="node53" class="node"><title>52</title>
<ellipse fill="none" stroke="black" cx="2151.24" cy="-105" rx="135.376" ry="18"/>
<text text-anchor="middle" x="2151.24" y="-101.3" font-family="Times New Roman,serif" font-size="14.00">rse&#45;server&#45;13_239_1_79_1split.txt</text>
</g>
<!-- 46&#45;&gt;52 -->
<g id="edge52" class="edge"><title>46&#45;&gt;52</title>
<path fill="none" stroke="black" d="M2200.43,-175.001C2190.98,-169.971 2181.58,-163.675 2174.24,-156 2168.04,-149.521 2163.3,-141.073 2159.77,-132.971"/>
<polygon fill="black" stroke="black" points="2162.95,-131.471 2156.07,-123.414 2156.42,-134.003 2162.95,-131.471"/>
<text text-anchor="middle" x="2243.74" y="-144.8" font-family="Times New Roman,serif" font-size="14.00">239_1_79_1split.txt 0.80</text>
</g>
<!-- 53 -->
<g id="node54" class="node"><title>53</title>
<ellipse fill="none" stroke="black" cx="2335.24" cy="-105" rx="30.5947" ry="18"/>
<text text-anchor="middle" x="2335.24" y="-101.3" font-family="Times New Roman,serif" font-size="14.00">Done</text>
</g>
<!-- 46&#45;&gt;53 -->
<g id="edge53" class="edge"><title>46&#45;&gt;53</title>
<path fill="none" stroke="black" d="M2286.73,-174.998C2296.34,-170.016 2305.83,-163.743 2313.24,-156 2319.49,-149.474 2324.13,-140.881 2327.5,-132.663"/>
<polygon fill="black" stroke="black" points="2330.89,-133.584 2331,-122.989 2324.31,-131.203 2330.89,-133.584"/>
<text text-anchor="middle" x="2351.24" y="-144.8" font-family="Times New Roman,serif" font-size="14.00">RB 37.95</text>
</g>
<!-- 54 -->
<g id="node55" class="node"><title>54</title>
<ellipse fill="none" stroke="black" cx="2519.24" cy="-105" rx="135.376" ry="18"/>
<text text-anchor="middle" x="2519.24" y="-101.3" font-family="Times New Roman,serif" font-size="14.00">rse&#45;server&#45;14_239_1_96_1split.txt</text>
</g>
<!-- 48&#45;&gt;54 -->
<g id="edge54" class="edge"><title>48&#45;&gt;54</title>
<path fill="none" stroke="black" d="M2513.66,-173.799C2514.62,-162.163 2515.9,-146.548 2517,-133.237"/>
<polygon fill="black" stroke="black" points="2520.49,-133.429 2517.83,-123.175 2513.52,-132.854 2520.49,-133.429"/>
<text text-anchor="middle" x="2585.74" y="-144.8" font-family="Times New Roman,serif" font-size="14.00">239_1_96_1split.txt 0.86</text>
</g>
<!-- 55 -->
<g id="node56" class="node"><title>55</title>
<ellipse fill="none" stroke="black" cx="2703.24" cy="-105" rx="30.5947" ry="18"/>
<text text-anchor="middle" x="2703.24" y="-101.3" font-family="Times New Roman,serif" font-size="14.00">Done</text>
</g>
<!-- 48&#45;&gt;55 -->
<g id="edge55" class="edge"><title>48&#45;&gt;55</title>
<path fill="none" stroke="black" d="M2600.8,-179.162C2620.95,-174.009 2641.59,-166.614 2659.24,-156 2669.86,-149.612 2679.3,-139.808 2686.69,-130.568"/>
<polygon fill="black" stroke="black" points="2689.65,-132.45 2692.87,-122.356 2684.06,-128.241 2689.65,-132.45"/>
<text text-anchor="middle" x="2705.24" y="-144.8" font-family="Times New Roman,serif" font-size="14.00">RB 30.47</text>
</g>
<!-- 56 -->
<g id="node57" class="node"><title>56</title>
<ellipse fill="none" stroke="black" cx="1783.24" cy="-18" rx="30.5947" ry="18"/>
<text text-anchor="middle" x="1783.24" y="-14.3" font-family="Times New Roman,serif" font-size="14.00">Done</text>
</g>
<!-- 50&#45;&gt;56 -->
<g id="edge56" class="edge"><title>50&#45;&gt;56</title>
<path fill="none" stroke="black" d="M1783.24,-86.799C1783.24,-75.1626 1783.24,-59.5479 1783.24,-46.2368"/>
<polygon fill="black" stroke="black" points="1786.74,-46.1754 1783.24,-36.1754 1779.74,-46.1755 1786.74,-46.1754"/>
<text text-anchor="middle" x="1810.24" y="-57.8" font-family="Times New Roman,serif" font-size="14.00">RB 32.84</text>
</g>
<!-- 57 -->
<g id="node58" class="node"><title>57</title>
<ellipse fill="none" stroke="black" cx="2151.24" cy="-18" rx="30.5947" ry="18"/>
<text text-anchor="middle" x="2151.24" y="-14.3" font-family="Times New Roman,serif" font-size="14.00">Done</text>
</g>
<!-- 52&#45;&gt;57 -->
<g id="edge57" class="edge"><title>52&#45;&gt;57</title>
<path fill="none" stroke="black" d="M2151.24,-86.799C2151.24,-75.1626 2151.24,-59.5479 2151.24,-46.2368"/>
<polygon fill="black" stroke="black" points="2154.74,-46.1754 2151.24,-36.1754 2147.74,-46.1755 2154.74,-46.1754"/>
<text text-anchor="middle" x="2178.24" y="-57.8" font-family="Times New Roman,serif" font-size="14.00">RB 31.43</text>
</g>
<!-- 58 -->
<g id="node59" class="node"><title>58</title>
<ellipse fill="none" stroke="black" cx="2519.24" cy="-18" rx="30.5947" ry="18"/>
<text text-anchor="middle" x="2519.24" y="-14.3" font-family="Times New Roman,serif" font-size="14.00">Done</text>
</g>
<!-- 54&#45;&gt;58 -->
<g id="edge58" class="edge"><title>54&#45;&gt;58</title>
<path fill="none" stroke="black" d="M2519.24,-86.799C2519.24,-75.1626 2519.24,-59.5479 2519.24,-46.2368"/>
<polygon fill="black" stroke="black" points="2522.74,-46.1754 2519.24,-36.1754 2515.74,-46.1755 2522.74,-46.1754"/>
<text text-anchor="middle" x="2546.24" y="-57.8" font-family="Times New Roman,serif" font-size="14.00">RB 28.19</text>
</g>
</g>
</svg>
